<svg xmlns="http://www.w3.org/2000/svg" viewBox="0 0 762 762" fill="none" shape-rendering="auto"><metadata xmlns:rdf="http://www.w3.org/1999/02/22-rdf-syntax-ns#" xmlns:xsi="http://www.w3.org/2001/XMLSchema-instance" xmlns:dc="http://purl.org/dc/elements/1.1/" xmlns:dcterms="http://purl.org/dc/terms/"><rdf:RDF><rdf:Description><dc:title>Adventurer</dc:title><dc:creator>Lisa Wischofsky</dc:creator><dc:source xsi:type="dcterms:URI">https://www.figma.com/community/file/1184595184137881796</dc:source><dcterms:license xsi:type="dcterms:URI">https://creativecommons.org/licenses/by/4.0/</dcterms:license><dc:rights>Remix of „Adventurer” (https://www.figma.com/community/file/1184595184137881796) by „Lisa Wischofsky”, licensed under „CC BY 4.0” (https://creativecommons.org/licenses/by/4.0/)</dc:rights></rdf:Description></rdf:RDF></metadata><mask id="viewboxMask"><rect width="762" height="762" rx="0" ry="0" x="0" y="0" fill="#fff" /></mask><g mask="url(#viewboxMask)"><path d="M396 164.8a224.8 224.8 0 0 1 104.8 42.4c6.2 4.9 12.5 9.4 18 15a225.4 225.4 0 0 1 71.8 149 58.5 58.5 0 0 1 50.9 42.2 71 71 0 0 1-27.6 76.5c-11 7.7-24.5 12-38 11.7-5 0-10-1.6-15-1.8-1.9 2.2-3.3 4.9-4.8 7.3A223.3 223.3 0 0 1 389 609.8c-11 .7-21.9 2-33 .7a223.7 223.7 0 0 1-178.8-342.3A223.4 223.4 0 0 1 352 163.5c14.6-1.4 29.4-.3 44 1.3Z" fill="#000"/><path fill-rule="evenodd" clip-rule="evenodd" d="M498.8 213.2A216 216 0 0 0 363 169c-13-.2-26.2 1.6-39 4a218 218 0 0 0-113.6 365.5 218.5 218.5 0 0 0 260.4 40.2c35-18.8 64.2-47.3 84.4-81.5l-3-1.6c-2.8-1.4-5.7-3-8-5-2.2-2-.3-5.8 2.7-4.7 1.5.7 3 1.6 4.4 2.4a55 55 0 0 0 59.6-3.6 64.5 64.5 0 0 0 25-69.8 53.1 53.1 0 0 0-24-31 52.6 52.6 0 0 0-47-2.8c-1.6.8-3.4 1.5-5 1.3-2.5-.2-2.8-4.2-.6-5.2 8-4 16.5-5.6 25.4-6.4a217 217 0 0 0-72-146.4c-4.4-4-8.7-8.1-13.9-11.3Zm107.6 196.2c2-1.2 1.3-5.1-1.4-5-2 0-4.2.8-6.2 1.6l-1.4.4a95.1 95.1 0 0 0-25.5 12.4c-2.2 2-2.2 4.4.1 6.2a92 92 0 0 0 5.2 2.8 36 36 0 0 1 13 9.2c-.2 1.9-2 3.4-3.4 4.5l-.2.2c-3.9 3-8.8 5-13.6 7-2.5 1-4.9 2-7.1 3.1-1.7.8-2.6 2.2-1.6 3.9 1 2 3.2 1.1 5 .5l.6-.2 5.4-2.3c5.4-2.3 11-4.5 15.4-8 2.7-2.1 5.1-5.1 5.4-8.7-.5-3.4-2.7-5.7-5.3-7.8a83 83 0 0 0-11.6-7.2l-1.1-.6c5.4-3 10.8-5.6 16.6-7.7l5-1.7a52 52 0 0 0 6.7-2.6Z" fill="#f2d3b1"/><g transform="translate(-161 -83)"><path d="M561.9 423.3c1.8.4 1.9 1.9 2 3.5 0 6.7-1 13.4-.8 20.1 8.3.6 16 2 24 4.5 3.2-7.1 6-14.4 8.8-21.6 1-1.8 1.5-4.1 4-3.8 2.4.3 2.6 3 1.8 4.8l-9 22.6a69.9 69.9 0 0 1 18.1 10.8c5-4.6 9.7-9.4 14.7-13.8 1.6-1.6 3.3-1 5.3-1.1-.2 2 .3 3.6-1.4 5.1-4.7 4.8-9.7 9.3-14.6 13.9a30 30 0 0 1 6.7 16.7c.7 9.9-4.8 18.2-12 24.4a78.6 78.6 0 0 1-40.5 16.1c-16.6 1.9-33.8.9-49.5-5A56.4 56.4 0 0 1 495 504c-5-6.4-7.8-14.7-5.7-22.8 2.4-9.9 9.9-17.3 18.3-22.4 14.8-9 32.4-12.1 49.5-12.1.2-6.6.5-13.2 1.1-19.7 0-2 1.2-4.3 3.6-3.7ZM372 441.4c2-.2 2.6 2.2 3.1 3.6 1.2 5 1.3 10.2 2.2 15.3a99 99 0 0 1 25.7.7c10.9 2 22 6 30.1 13.9 5 4.6 8.5 11.2 8.3 18.1a27 27 0 0 1-10 18.5 65 65 0 0 1-33 13.7 84 84 0 0 1-47.3-6.3c-8.5-4.1-17-11.2-19.2-20.8-1.3-5.2 0-10 2-14.8-3.9-3.5-7.7-7-11.5-10.7-.8-1-2.4-2.2-2-3.6 0-2.6 3.5-3 5-1.4 4 3.5 7.7 7.4 11.7 10.9 3.4-3.6 7-6.6 11.1-9.2l-8.2-18.4c-1.1-2.2-.9-4.4-.7-6.8 1.2.2 2.6.3 3.8.8 1.2 1.2 1.8 3 2.6 4.5 2.5 5.7 5.1 11.4 7.5 17.2 6-2.6 12-4.3 18.3-5.6-.4-5.4-1.7-10.6-2-16 0-1.6.4-4.1 2.5-3.6Z" fill="#000"/><path d="M539.5 453.7a103 103 0 0 1 44.2 2.6c9.5 3 19.2 7.5 26 15 4.3 5 7 11.1 6 17.7-1.1 7.2-5.8 13-11.4 17.3a73.5 73.5 0 0 1-31.1 12.8 101.6 101.6 0 0 1-47.7-2.6c-9.4-3-19-7.8-25.5-15.5-4.3-5-6.9-12.4-4.9-19 1.6-6.6 6.7-12 12-16a76 76 0 0 1 32.4-12.3ZM371.5 467c15.6-3 33-1.8 47.4 5 6.4 3 13.4 8.2 15.8 15.1 2 5.7.3 11.8-3.3 16.3a43.5 43.5 0 0 1-18.6 12.3 80.5 80.5 0 0 1-39.8 3.8c-9-1.3-18.4-4.3-26-9.6-5.1-4-9.5-9-9.8-15.9-.2-6.6 3.9-12 8.7-16.1a59.4 59.4 0 0 1 25.6-11Z" fill="#fff"/><path d="M592.2 469.2c2.2-1.6 4.7-.3 6 1.7 1.8 3 2.1 6.6 2.5 10.1.4 5.2.8 10.7-.3 15.9-.3 1.3-1 2.6-2 3.5-3 1.4-6.9-1.3-7.6-4.2-2-6.2-2-13.2-1.4-19.7.4-2.3.6-5.9 2.8-7.3ZM413.3 476.3a4 4 0 0 1 6 2.4c1.8 5.1 1.9 11 2 16.3-.1 3.1-.4 8-3.8 9.5-2.6 1-4.6-1.4-5.4-3.6a45.1 45.1 0 0 1-1.5-17c.2-2.3.4-6.2 2.7-7.6Z" fill="#000"/></g><g transform="translate(-161 -83)"><path d="M607 397.6c1.5-.4 3.2.6 4.7 1 0 1.2-.1 2.4-.4 3.6-1.6 1.5-3.6 2.6-5.4 3.8a803.6 803.6 0 0 1-70.4 40.6A289.9 289.9 0 0 1 500 462a50 50 0 0 1-21 3.5c-3.3-.4-6.2-3-6.2-6.5 0-4.2 3-8.6 5-12.1 1.3-2.7 4.5-3 7-4.1l111.7-41.5c3.5-1.2 7-2.8 10.5-3.7ZM339 432.6l90 18c2.3.4 4.6.1 6.9.5 2.4 2.3 3.6 6.2 4.5 9.4 1.2 4-.1 8.8-4 11-4 2.6-9.8 2.1-14.4 1.9-8.8-1-17.4-3.8-25.7-6.8a418 418 0 0 1-57-27c-1.6-.9-3.6-1.9-4.8-3.5-.3-2.9 1.9-4.1 4.5-3.5Z" fill="#000"/></g><g transform="translate(-161 -83)"><path d="M477 628.9a37.2 37.2 0 0 1 27.4 11.6c5 5.1 8.4 11.4 11 18 .4 3.5 2.2 6.5-1.4 8.8-8.4.2-16.7.8-25 1-12.3 1-24.7.5-37 2-1.9-2-2.3-3.8-2.5-6.4-1-8.6 1.2-17.9 6.7-24.7A28 28 0 0 1 477 629Z" fill="#000"/><path d="M484.5 635.5c12.6 3 22 14 25.5 26.2-18.3.4-36.6 1.7-54.8 2.2a28 28 0 0 1 7.6-23.1c5.8-5.7 14-7 21.7-5.3Z" fill="#8F2E45"/></g><g transform="translate(-161 -83)"></g><g transform="translate(-161 -83)"><path fill-rule="evenodd" clip-rule="evenodd" d="M589 446c12.8.8 25.7 1.9 37.4 7.6 1.1.5 2.2 1.2 3.3 1.9 1.4.9 2.8 1.8 4.3 2.3 2.3.4 4.7.4 7 .5 2.7.1 5.4.2 8 .7 2.1.8 2.3 2.8 2.4 4.8v1c0 2.2 0 4.2-2.4 5.4-2.2.2-4.4.2-6.6.2h-3.2a92.2 92.2 0 0 1-11.5 52.3 82.3 82.3 0 0 1-43.9 37.2 78.7 78.7 0 0 1-77.4-14.3 88.7 88.7 0 0 1-28.7-44.5c-1-3-1.5-6-2-9-.6-3.2-1.2-6.4-2.3-9.5-2-5.5-10.5-8.8-14.5-3.7-3.3 3.7-3.2 8-3.2 12.6v3.5a77.3 77.3 0 0 1-41.3 65.4 65 65 0 0 1-46.2 5.3 62 62 0 0 1-30.7-19.2 70.8 70.8 0 0 1-16.8-45.2l-1.5-.2c-1.4-.2-2.7-.3-3.4-2v-.4c-.3-2.1-.9-5.5 1.4-6.5 1-.5 2-1 3-1.3 2.2-1 4.4-1.8 6.2-3.5a88.9 88.9 0 0 1 37.6-17.3 152 152 0 0 1 69-1c5.8 1.5 12 1.7 17.7-.4 7.1-2.3 14.9-3.5 22.3-2.5 5.8.6 11.9.4 17.4-1.9 12.1-4.6 24-9.1 36.6-12.3 20.3-5.1 41-7.2 62-6Zm-25 13c17.6-1 36-.8 53.3 3.7a19 19 0 0 1 14.2 15.5c1.3 7.9.3 15.5-1.3 23.3a80.6 80.6 0 0 1-24.7 39 73 73 0 0 1-81.6 9.6 80 80 0 0 1-33.2-32.9 60.6 60.6 0 0 1-6.4-35.5 98 98 0 0 1 20.2-10.3A214.9 214.9 0 0 1 564 459Zm-134.8 19.8c-11.4-2.2-23-2.7-34.7-2-16 1.2-31.3 3.7-46.4 9.4-5.2 2-10.6 4.5-15 8-4.1 2.8-5.5 9.1-5.7 13.8.3 8.9 3.6 17.9 8 25.5a56.4 56.4 0 0 0 66.7 25.6 68 68 0 0 0 46.6-62.1 47 47 0 0 0-1.4-10c-.3-1.6-1.8-2.5-3.1-3.3l-.6-.3a57.8 57.8 0 0 0-14.4-4.6Z" fill="#000"/></g><g transform="translate(-161 -83)"><path d="M484 203.3c31.3-2 63.4.1 93.9 8 21.5 5.4 42.2 13.8 60.9 26.1 23.4-3.9 47.9.9 69.4 10.4a172.1 172.1 0 0 1 60.1 45.8 164.6 164.6 0 0 1 38.8 87.4c1 12.2.9 25-1.8 37a91.5 91.5 0 0 1-26.1 48.2c-1.9 1.5-3 2.2-5.4 1a61.1 61.1 0 0 0-49.6-3c1 10.6.3 21-4.5 30.6a33 33 0 0 1-15.7 15.6c-2.7.9-4.6-1.4-3.5-4 3.3-8.1 3-16.7 2.8-25.4a149 149 0 0 0-2.9-23.5c-7.6.9-15.3.3-22.5-2.4a87.2 87.2 0 0 1-37-29 205 205 0 0 1-27.8-49.2c-9.5-23.3-16-48-20.2-72.8-.7-3.9-1-7.7-2.1-11.4-20.3-1.1-40.6-1-60.8-.4a631.8 631.8 0 0 0-65 7 452.8 452.8 0 0 0-96.2 25.6c-2.5 1.1-5 1.9-6.9 4a145.6 145.6 0 0 0-16.2 21.8 258.6 258.6 0 0 0-27 59.1c-1.1 3.2-1.6 6.8-3.2 9.7-1.4 1.6-3.4 1-4.8-.2a102.5 102.5 0 0 1-29.8-41.3 83.1 83.1 0 0 1-4.4-39.8c2.6-19 11.3-36.6 23.2-51.6 19-24 45.9-42.4 73.5-55.3a317.4 317.4 0 0 1 110.8-28Z" fill="#000"/><path d="M517 208.5c7.7.7 15.3.7 23 1.8 33.2 3.7 67.5 13.5 95.6 32 .8.5 1.6 1 2.4 1.2 16.3-3.4 34-1.6 49.8 3a160 160 0 0 1 77.4 52.4 162.1 162.1 0 0 1 34.3 71c3.1 16.7 3.5 33.6-.7 50.1a86.2 86.2 0 0 1-23.1 41.5 67.8 67.8 0 0 0-52.2-3.1c-2 .8-5.6 1.7-5.4 4.5 2.1 13 0 28-9.7 37.6 1.7-15.1.5-30.6-2.5-45.5-.7-3-1.8-3.8-4.9-3.4-9 1.4-17.6-.1-25.8-4a84 84 0 0 1-28.4-23.4c-12.3-15-21.6-33-28.9-51-10-25.1-16.6-51.6-20.6-78.2-.5-2.2.3-6.8-2.4-7.6-7.3-.7-14.6-.8-21.9-1.4-13.6 0-27.4-.6-41 .6A560.9 560.9 0 0 0 414.1 304c-20 5.3-40 11.9-58.7 20.6a153 153 0 0 0-32.3 19.6 53 53 0 0 0-15.6 19.3c-.6 1.9-1.6 3.8-.8 5.8 1.8 2 4.6 1.4 5.4-1.2 2-5.6 5.2-10.3 9.4-14.5 8.1-8.3 18.6-14.7 28.9-20-4 5-7.6 10.4-11 16a265.7 265.7 0 0 0-27.7 63 96.2 96.2 0 0 1-25.4-36.8 80.5 80.5 0 0 1 2-58.5 133 133 0 0 1 38.2-49.7 225 225 0 0 1 52-32.2c32.2-14.5 67.3-23 102.5-25.9 12-.6 23.9-1.8 36-.9Z" fill="#b9a05f"/></g><g transform="translate(-161 -83)"></g></g></svg>