<?xml version="1.0" ?>
<!-- Uploaded to: SVG Repo, www.svgrepo.com, Generator: SVG Repo Mixer Tools -->
<svg width="800px" height="800px" viewBox="0 0 64 64" xmlns="http://www.w3.org/2000/svg">
<defs>
<style>.cls-1{fill:#f6e266;}.cls-2{fill:#d57080;}.cls-3{fill:#e7ecf1;}.cls-4{fill:#dae4ea;}.cls-5{fill:#f6f9f9;}.cls-6{fill:#e7aa90;}.cls-7{fill:#f4dd45;}.cls-8{fill:#cb5769;}</style>
</defs>
<g data-name="Winter Avatar" id="Winter_Avatar-23">
<path class="cls-1" d="M17.86,29.65a15.15,15.15,0,0,1-2-8.53A14.6,14.6,0,0,1,30.58,8c9.75,0,14,6.41,14,14.05L23.41,33.43Z" id="path16125-0"/>
<path class="cls-2" d="M21.53,34.15a3,3,0,1,1-2.32-4.85,2.9,2.9,0,0,1,1.52.42l1.74.43Z" id="path15412-2"/>
<path class="cls-3" d="M26.63,39.83A17.05,17.05,0,0,0,15.18,53.24,2.45,2.45,0,0,0,17.73,56H46.27a2.46,2.46,0,0,0,2.55-2.76A17.05,17.05,0,0,0,37.37,39.83Z" id="path13088-1-1"/>
<path class="cls-4" d="M34,39.83A17,17,0,0,1,45.43,53.24,2.45,2.45,0,0,1,42.89,56h3.38a2.45,2.45,0,0,0,2.55-2.76A17.05,17.05,0,0,0,37.37,39.83Z" id="path175371-2"/>
<path class="cls-5" d="M28.91,22.6a14.72,14.72,0,0,0-4.13.41,1.51,1.51,0,0,1-1.56-.13A11.28,11.28,0,1,0,41.55,24,90.59,90.59,0,0,0,28.91,22.6Z" id="circle13086-4-8"/>
<path class="cls-6" d="M33.72,29.54c0,1.05-.85,2.93-1.9,2.93s-1.9-1.88-1.9-2.93a1.9,1.9,0,0,1,3.8,0Z" id="path13094-9-9"/>
<path class="cls-3" d="M39.42,23.62A11.27,11.27,0,0,1,31,41.19c.32,0,.64,0,1,0A11.28,11.28,0,0,0,41.55,24Z" id="path175373-3"/>
<path class="cls-7" d="M44.53,22.05c0-7.64-4.2-14-14-14a15.43,15.43,0,0,0-1.81.11C37,9,40.63,15,40.63,22.05Z" id="path206649"/>
<path class="cls-2" d="M32,19.91a40.54,40.54,0,0,0-12.53,2.14,2,2,0,0,0,1.36,3.7A37.26,37.26,0,0,1,32,23.85a37.26,37.26,0,0,1,11.17,1.9,2,2,0,1,0,1.36-3.7A40.54,40.54,0,0,0,32,19.91Z" id="path31499-2-68"/>
<path class="cls-8" d="M42,21.28a2.32,2.32,0,0,1-1,3.82c1.35.36,2.18.66,2.18.66a2,2,0,0,0,1.36-3.71S43.56,21.7,42,21.28Z" id="path206771"/>
<path d="M49.81,53.08A18,18,0,0,0,39.53,39.63a12.14,12.14,0,0,0,4.34-12.76,3,3,0,0,0,1.63-5.42C45.25,12.52,39.59,7,30.58,7A15.57,15.57,0,0,0,14.9,21a15.53,15.53,0,0,0,1.67,8.32,3.91,3.91,0,0,0-1.34,3,4,4,0,0,0,4,4,3.93,3.93,0,0,0,2-.54,12.22,12.22,0,0,0,3.3,3.91A18,18,0,0,0,14.19,53.08a3.24,3.24,0,0,0,.75,2.65A3.62,3.62,0,0,0,17.73,57H46.27a3.62,3.62,0,0,0,2.79-1.27A3.24,3.24,0,0,0,49.81,53.08ZM44.76,24.24a1,1,0,0,1-1.25.57,37.87,37.87,0,0,0-11.51-2,38.1,38.1,0,0,0-11.52,2,1,1,0,0,1-1.24-.57A1,1,0,0,1,19.82,23,39.87,39.87,0,0,1,32,20.91,39.87,39.87,0,0,1,44.18,23,1,1,0,0,1,44.76,24.24Zm-27.88-3A13.6,13.6,0,0,1,30.58,9C38.21,9,43,13.33,43.47,20.66A41.16,41.16,0,0,0,32,18.91a41.25,41.25,0,0,0-11.44,1.74,16.14,16.14,0,0,1,.5-3.12,1,1,0,0,0-.7-1.23,1,1,0,0,0-1.23.69,19.11,19.11,0,0,0-.62,4.45,3,3,0,0,0,1.62,5.42,11.31,11.31,0,0,0-.29,1.52,4.52,4.52,0,0,0-.63-.08,4.14,4.14,0,0,0-.87.1A13.82,13.82,0,0,1,16.88,21.23Zm2.33,13a2,2,0,0,1-2-2,2,2,0,0,1,1.11-1.76h0s0,0,0,0a1.94,1.94,0,0,1,.83-.19,1.88,1.88,0,0,1,.53.07,12.6,12.6,0,0,0,.63,3.5A1.91,1.91,0,0,1,19.21,34.26ZM21.72,30a10.16,10.16,0,0,1,.69-3.66A36.05,36.05,0,0,1,32,24.85a35.57,35.57,0,0,1,9.59,1.46A10.11,10.11,0,0,1,42.28,30a10.28,10.28,0,0,1-20.56,0ZM47.54,54.44a1.68,1.68,0,0,1-1.27.56H17.73a1.68,1.68,0,0,1-1.27-.56,1.24,1.24,0,0,1-.29-1A16,16,0,0,1,26.55,40.94a12.16,12.16,0,0,0,10.9,0A16,16,0,0,1,47.83,53.4,1.24,1.24,0,0,1,47.54,54.44Z"/>
<circle cx="32" cy="50.9" r="1.25"/>
<path d="M32,36.44a8.19,8.19,0,0,0,4.44-1.25,1,1,0,0,0-1.15-1.63,6.56,6.56,0,0,1-6.58,0,1,1,0,0,0-1.15,1.64A8.19,8.19,0,0,0,32,36.44Z"/>
<path d="M31.82,33.47c1.87,0,2.9-2.6,2.9-3.93a2.9,2.9,0,0,0-5.8,0C28.92,30.87,29.94,33.47,31.82,33.47Zm0-4.83a.9.9,0,0,1,.9.9,3,3,0,0,1-.88,1.93,2.78,2.78,0,0,1-.92-1.93A.9.9,0,0,1,31.82,28.64Z"/>
<circle cx="32" cy="45.22" r="1.25"/>
</g>
</svg>