<?xml version="1.0" ?>
<!-- Uploaded to: SVG Repo, www.svgrepo.com, Generator: SVG Repo Mixer Tools -->
<svg width="800px" height="800px" viewBox="0 0 64 64" xmlns="http://www.w3.org/2000/svg">
<defs>
<style>.cls-1{fill:#756e78;}.cls-2{fill:#e7ecf1;}.cls-3{fill:#665e66;}.cls-4{fill:#dae4ea;}.cls-5{fill:#eaafa5;}.cls-6{fill:#e29375;}.cls-7{fill:#f1cbc6;}.cls-8{fill:#e7aa90;}</style>
</defs>
<g data-name="Winter Avatar" id="Winter_Avatar-10">
<path class="cls-1" d="M17.31,42.7a6.22,6.22,0,0,0-3.63,5.66v6A1.64,1.64,0,0,0,15.32,56H48.68a1.64,1.64,0,0,0,1.64-1.64v-6a6.22,6.22,0,0,0-3.63-5.66Z" id="path4867-5-7"/>
<path class="cls-2" d="M32,8a2.7,2.7,0,0,0-2.48,1.63,2.7,2.7,0,0,0-4.79,1.28,2.7,2.7,0,0,0-4.3,2.49,2.7,2.7,0,0,0-3.51,3.5,2.71,2.71,0,0,0-2.48,4.3A2.7,2.7,0,0,0,13.15,26a2.7,2.7,0,0,0-1.62,2.49A2.67,2.67,0,0,0,13.15,31a2.71,2.71,0,0,0,1.29,4.8,2.71,2.71,0,0,0,2.48,4.3,2.68,2.68,0,0,0,.6,2.9,2.71,2.71,0,0,0,2.91.61A2.7,2.7,0,0,0,24.72,46a2.71,2.71,0,0,0,4.8,1.28,2.7,2.7,0,0,0,5,0A2.7,2.7,0,0,0,39.27,46a2.7,2.7,0,0,0,4.3-2.48A2.71,2.71,0,0,0,46.48,43a2.68,2.68,0,0,0,.6-2.9,2.71,2.71,0,0,0,2.48-4.3A2.71,2.71,0,0,0,50.85,31a2.67,2.67,0,0,0,1.62-2.47A2.7,2.7,0,0,0,50.85,26a2.7,2.7,0,0,0-1.29-4.79,2.71,2.71,0,0,0-2.48-4.3,2.7,2.7,0,0,0-3.51-3.5,2.7,2.7,0,0,0-4.29-2.49,2.71,2.71,0,0,0-4.8-1.28A2.7,2.7,0,0,0,32,8Z" id="rect3829-0-3"/>
<path class="cls-3" d="M43.88,42.7a6.21,6.21,0,0,1,3.62,5.66v6A1.63,1.63,0,0,1,45.87,56h2.81a1.63,1.63,0,0,0,1.63-1.64v-6a6.21,6.21,0,0,0-3.62-5.66Z" id="path46786-6"/>
<path class="cls-4" d="M36.5,8.61A2.65,2.65,0,0,0,35.23,9a2.73,2.73,0,0,1,1.3,1.93,2.68,2.68,0,0,1,2.68-.3A2.69,2.69,0,0,0,37.3,8.7,2.77,2.77,0,0,0,36.5,8.61Zm4.21,1.77a2.73,2.73,0,0,0-1.2.38,2.7,2.7,0,0,1,1.31,2.64,2.7,2.7,0,0,1,3.51,3.5,2.71,2.71,0,0,1,2.48,4.3A2.7,2.7,0,0,1,48.1,26a2.71,2.71,0,0,1,1.63,2.49A2.68,2.68,0,0,1,48.1,31a2.71,2.71,0,0,1-1.28,4.8,2.71,2.71,0,0,1-2.49,4.3,2.68,2.68,0,0,1-.6,2.9,2.71,2.71,0,0,1-2.91.61,2.69,2.69,0,0,1-1.31,2.63,2.7,2.7,0,0,0,4.06-2.63A2.71,2.71,0,0,0,46.48,43a2.68,2.68,0,0,0,.6-2.9,2.71,2.71,0,0,0,2.48-4.3A2.71,2.71,0,0,0,50.85,31a2.67,2.67,0,0,0,1.62-2.47A2.7,2.7,0,0,0,50.85,26a2.7,2.7,0,0,0-1.29-4.79,2.71,2.71,0,0,0-2.48-4.3,2.7,2.7,0,0,0-3.51-3.5,2.71,2.71,0,0,0-2.86-3ZM36.53,46A2.7,2.7,0,0,1,35.23,48a2.65,2.65,0,0,0,2.07.29,2.71,2.71,0,0,0,1.91-1.91A2.7,2.7,0,0,1,36.53,46Z" id="path46514-1"/>
<path class="cls-5" d="M36.82,39.56c0,2.66-2.16,4-4.82,4s-4.82-1.32-4.82-4Z" id="path29045-5"/>
<path class="cls-6" d="M19.33,27.22l.86,6.62c-.18,1.64-.37,3.18-.51,4a1,1,0,0,0,.31.9C22.47,40.52,28.21,40,28.21,40h7.57s5.75.49,8.23-1.25a1,1,0,0,0,.31-.9c-.14-.86-.33-2.4-.51-4l.87-6.61L32.4,19.66Z" id="path120224-32"/>
<path class="cls-5" d="M43.08,25H20.92c-.59.12-1.59,2.22-1.59,2.22a3.88,3.88,0,0,0,2.39,6.93H42.28a3.88,3.88,0,0,0,2.4-6.92S43.67,25.12,43.08,25Z" id="path71411-27-0"/>
<path class="cls-7" d="M43.08,26.48l.16,1.95a11.28,11.28,0,1,1-22.48,0l.09-1.1.07-.85,6.74-7,10.92,1.28Z" id="path118751-5"/>
<path class="cls-5" d="M27.66,19.47l-.32.33,8.14.95L40,26.48l.16,1.95a11.29,11.29,0,0,1-9.7,12.1,13.16,13.16,0,0,0,1.55.1,11.28,11.28,0,0,0,11.24-12.2l-.16-1.95-4.5-5.73Z" id="path131872-5"/>
<path class="cls-6" d="M32.59,22.2c.49.55,5.36,5.79,10.49,4.28a3.87,3.87,0,0,1,1.6.75l-.21-2.5a12.32,12.32,0,0,0-5.66-9.39l-2.9.26Z" id="path18028-4"/>
<path class="cls-8" d="M32,13.36A12.42,12.42,0,0,0,19.54,24.73l-.21,2.49a3.81,3.81,0,0,1,1.59-.74l.79-.08c.55-.06,1.13-.15,1.65-.24A22.74,22.74,0,0,0,38.81,15.34a12.38,12.38,0,0,0-6.8-2Z" id="path71397-29-76"/>
<path d="M28.27,31.46a1,1,0,0,0,1-1V29.34a1,1,0,0,0-2,0v1.12A1,1,0,0,0,28.27,31.46Z"/>
<path d="M35.73,31.46a1,1,0,0,0,1-1V29.34a1,1,0,1,0-2,0v1.12A1,1,0,0,0,35.73,31.46Z"/>
<path d="M28,34.55a1,1,0,0,0,.24,1.4,7.27,7.27,0,0,0,7.56,0,1,1,0,0,0-1.14-1.64,5.31,5.31,0,0,1-5.27,0A1,1,0,0,0,28,34.55Z"/>
<path d="M19.12,34.38c-.31,2.73-.46,3.55-.52,3.79a1,1,0,0,0,.26,1c1.58,1.59,4.78,2,7.48,2h.09c.68,2.11,2.73,3.45,5.57,3.45a6.53,6.53,0,0,0,4-1.2,4.36,4.36,0,0,0,1.55-2.25h.09c2.7,0,5.9-.38,7.48-2a1,1,0,0,0,.26-1c-.06-.24-.21-1.06-.52-3.79a4.88,4.88,0,0,0,2.28-4.11,4.82,4.82,0,0,0-1.52-3.5l-.17-2.12a13.52,13.52,0,0,0-26.93,0l-.17,2.1a4.83,4.83,0,0,0,.75,7.63ZM32.58,23.49c1.08,1.15,4.4,4.28,8.51,4.28a8.11,8.11,0,0,0,1.09-.08l.06.82a10.28,10.28,0,1,1-20.48,0l.09-1.14A23,23,0,0,0,32.58,23.49Zm-12.8,4.66,0,.2a12.28,12.28,0,0,0,.43,4.36,2.87,2.87,0,0,1-.41-4.56Zm1.27,7,.11,0A11.93,11.93,0,0,0,23,37.67,11.13,11.13,0,0,0,24.45,39a8.85,8.85,0,0,1-3.78-1C20.75,37.51,20.88,36.63,21.05,35.1Zm13.76,6.65a4.68,4.68,0,0,1-2.81.79c-.68,0-2.52-.13-3.38-1.39a12.39,12.39,0,0,0,3.38.49,12.24,12.24,0,0,0,3.36-.49A2.6,2.6,0,0,1,34.81,41.75ZM43.33,38a8.85,8.85,0,0,1-3.78,1A11.13,11.13,0,0,0,41,37.67a11.93,11.93,0,0,0,1.81-2.55l.11,0C43.12,36.63,43.25,37.51,43.33,38Zm.48-5.32a12.28,12.28,0,0,0,.43-4.36l0-.2a2.87,2.87,0,0,1-.41,4.56Zm-.33-7.89.06.76-.26-.08a1,1,0,0,0-.48,0h0c-3.84,1.13-7.41-2-8.62-3.25a20.83,20.83,0,0,0,4.74-5.65A11.29,11.29,0,0,1,43.48,24.82ZM32,14.36a11.6,11.6,0,0,1,5.2,1.21,20.15,20.15,0,0,1-16.37,9.91l-.12,0-.25.07.06-.75A11.39,11.39,0,0,1,32,14.36Z"/>
<path d="M11.67,31.15a3.71,3.71,0,0,0,1.38,5.17A3.71,3.71,0,0,0,15.73,41,3.65,3.65,0,0,0,16,42.31a7.22,7.22,0,0,0-3.27,6v6A2.64,2.64,0,0,0,15.32,57H48.68a2.64,2.64,0,0,0,2.63-2.64v-6a7.23,7.23,0,0,0-3.27-6A3.65,3.65,0,0,0,48.27,41a3.76,3.76,0,0,0,2.33-1.75A3.72,3.72,0,0,0,51,36.32a3.71,3.71,0,0,0,1.38-5.17,3.7,3.7,0,0,0,1.14-2.68,3.66,3.66,0,0,0-1.14-2.67A3.71,3.71,0,0,0,51,20.63a3.72,3.72,0,0,0-.35-2.89A3.76,3.76,0,0,0,48.27,16a3.71,3.71,0,0,0-3.79-3.79,3.7,3.7,0,0,0-4.63-2.67,3.7,3.7,0,0,0-5.17-1.39,3.72,3.72,0,0,0-5.36,0,3.7,3.7,0,0,0-2.88-.41,3.74,3.74,0,0,0-2.29,1.8,3.7,3.7,0,0,0-4.63,2.67,3.9,3.9,0,0,0-2.71,1.09A3.74,3.74,0,0,0,15.73,16a3.76,3.76,0,0,0-2.33,1.75,3.72,3.72,0,0,0-.35,2.89,3.71,3.71,0,0,0-1.38,5.17,3.66,3.66,0,0,0-1.14,2.67A3.7,3.7,0,0,0,11.67,31.15Zm3,23.21v-6a5.23,5.23,0,0,1,2.46-4.43,3.57,3.57,0,0,0,2.37.82,3.7,3.7,0,0,0,4.63,2.67,3.7,3.7,0,0,0,5.17,1.39,3.67,3.67,0,0,0,1.68,1V55H15.32A.64.64,0,0,1,14.69,54.36Zm34.62-6v6a.64.64,0,0,1-.63.64H33V49.79a3.76,3.76,0,0,0,1.68-1,3.7,3.7,0,0,0,2.88.41,3.74,3.74,0,0,0,2.29-1.8,3.7,3.7,0,0,0,4.63-2.67,3.71,3.71,0,0,0,2.37-.82A5.2,5.2,0,0,1,49.31,48.36ZM13.55,26.91a1,1,0,0,0,.23-1.7,1.7,1.7,0,0,1,.8-3,1,1,0,0,0,.78-.61,1,1,0,0,0-.12-1,1.68,1.68,0,0,1-.11-1.86,1.7,1.7,0,0,1,1.67-.84,1,1,0,0,0,.91-.39,1,1,0,0,0,.14-1,1.71,1.71,0,0,1,2.21-2.22,1,1,0,0,0,1-.13,1,1,0,0,0,.38-.91,1.69,1.69,0,0,1,.84-1.67,1.72,1.72,0,0,1,1.87.1,1,1,0,0,0,1,.13,1,1,0,0,0,.61-.78,1.69,1.69,0,0,1,3-.81,1,1,0,0,0,.92.37,1,1,0,0,0,.79-.6,1.7,1.7,0,0,1,3.12,0,1,1,0,0,0,.79.6,1,1,0,0,0,.91-.37,1.71,1.71,0,0,1,3,.81,1,1,0,0,0,1.58.65,1.72,1.72,0,0,1,1.87-.1,1.69,1.69,0,0,1,.84,1.67,1,1,0,0,0,1.36,1,1.71,1.71,0,0,1,2.21,2.22,1,1,0,0,0,.14,1,1,1,0,0,0,.91.39,1.7,1.7,0,0,1,1.67.84,1.68,1.68,0,0,1-.11,1.86,1,1,0,0,0,.66,1.59,1.71,1.71,0,0,1,.81,3,1,1,0,0,0,.22,1.7,1.71,1.71,0,0,1,0,3.13,1,1,0,0,0-.22,1.7,1.71,1.71,0,0,1-.81,3,1,1,0,0,0-.78.61,1,1,0,0,0,.12,1,1.68,1.68,0,0,1,.11,1.86,1.7,1.7,0,0,1-1.67.84,1,1,0,0,0-.91.39,1,1,0,0,0-.14,1,1.71,1.71,0,0,1-2.21,2.22,1,1,0,0,0-1.36,1,1.7,1.7,0,0,1-2.71,1.56,1,1,0,0,0-1-.12,1,1,0,0,0-.61.78A1.69,1.69,0,0,1,37,47.29a1.73,1.73,0,0,1-1.78-.59,1,1,0,0,0-.91-.37,1,1,0,0,0-.79.59,1.7,1.7,0,0,1-3.12,0,1,1,0,0,0-.79-.59h-.13a1,1,0,0,0-.79.38,1.7,1.7,0,0,1-3-.81,1,1,0,0,0-1.58-.65,1.71,1.71,0,0,1-2.71-1.57,1,1,0,0,0-1.36-1,1.7,1.7,0,0,1-1.83-.38,1.72,1.72,0,0,1-.38-1.84,1,1,0,0,0-.14-1,1,1,0,0,0-.91-.39,1.7,1.7,0,0,1-1.56-2.71,1,1,0,0,0,.12-1,1,1,0,0,0-.78-.61,1.71,1.71,0,0,1-.81-3,1,1,0,0,0-.22-1.7,1.71,1.71,0,0,1,0-3.13Z"/>
</g>
</svg>