<?xml version="1.0" ?>
<!-- Uploaded to: SVG Repo, www.svgrepo.com, Generator: SVG Repo Mixer Tools -->
<svg width="800px" height="800px" viewBox="0 0 64 64" xmlns="http://www.w3.org/2000/svg">
<defs>
<style>.cls-1{fill:#e7aa90;}.cls-2{fill:#f6f9f9;}.cls-3{fill:#cb5769;}.cls-4{fill:#d57080;}.cls-5{fill:#665e66;}.cls-6{fill:#756e78;}.cls-7{fill:#544f57;}</style>
</defs>
<g data-name="Winter Avatar" id="Winter_Avatar-20">
<path class="cls-1" d="M32.45,17.11,22.28,23a10.91,10.91,0,0,0,1.95,12.73L16,33.52l-2.75,2.86.62,5.07L22,43.64v9.64A2.71,2.71,0,0,0,24.74,56H39.26A2.71,2.71,0,0,0,42,53.28V43.64l8.19-2.19.45-4.58L48,33.52l-8.3,2.22a10.91,10.91,0,0,0-7.29-18.63Z" id="path225221"/>
<path class="cls-2" d="M13.83,41.45,16,33.52l-2.79-.75A4.11,4.11,0,1,0,11,40.7Z" id="path41243-4"/>
<path class="cls-2" d="M48,33.52l2.13,7.93L53,40.7a4.11,4.11,0,1,0-2.13-7.93Z" id="path225223"/>
<path class="cls-3" d="M33.75,41.54l3.8,1.71a.9.9,0,0,0,1.27-.82V38.56a.9.9,0,0,0-.93-.9.84.84,0,0,0-.34.08l-3.8,1.71h-3.5l-3.8-1.71a.84.84,0,0,0-.34-.08.9.9,0,0,0-.93.9v3.87a.9.9,0,0,0,1.27.82l3.8-1.71Z" id="path9745-2-31"/>
<path class="cls-4" d="M32,38.06a1.75,1.75,0,0,1,1.75,1.76v1.72a1.75,1.75,0,1,1-3.5,0V39.82A1.75,1.75,0,0,1,32,38.06Z" id="rect4471-6-1"/>
<path class="cls-5" d="M21.86,19.49l-3.9-6a1.1,1.1,0,0,1,.32-1.59L24.8,8.14a1.08,1.08,0,0,1,1.53.52L29.57,15l-3.28,2.74Z" id="rect13409-8-3"/>
<path class="cls-6" d="M21.18,19.89l9.08-5.24A1.68,1.68,0,0,1,32,17.56L22.86,22.8a1.68,1.68,0,0,1-1.68-2.91Z" id="rect13142-1-0"/>
<path class="cls-7" d="M29.57,15,26.33,8.66a1.07,1.07,0,0,0-1-.66,1.14,1.14,0,0,0-.56.14l-2,1.18a1.08,1.08,0,0,1,1.53.52l3.24,6.38Z" id="path225525"/>
<path class="cls-5" d="M31.06,14.42a1.71,1.71,0,0,0-.8.23l-2,1.14a1.68,1.68,0,0,1,1.7,2.9l2-1.13a1.68,1.68,0,0,0-.89-3.14Z" id="path225836"/>
<path d="M32,45.35a1.26,1.26,0,0,0,0,2.51h0a1.25,1.25,0,0,0,1.25-1.25h0A1.26,1.26,0,0,0,32,45.35Z"/>
<path d="M34.86,32.86a5.6,5.6,0,0,1-2.86.76,5.5,5.5,0,0,1-2.86-.76,1,1,0,0,0-1.39.24A1,1,0,0,0,28,34.5a7.74,7.74,0,0,0,8,0,1,1,0,0,0-1.15-1.64Z"/>
<path d="M27.81,31.59A3.62,3.62,0,0,0,31.28,29h1.44a3.64,3.64,0,1,0,0-2H31.28a3.63,3.63,0,1,0-3.47,4.63Zm8.38-5.27a1.64,1.64,0,1,1,0,3.27,1.64,1.64,0,0,1,0-3.27Zm-8.38,0A1.64,1.64,0,1,1,26.17,28,1.64,1.64,0,0,1,27.81,26.32Z"/>
<path d="M37.86,36.66a1.81,1.81,0,0,0-.72.17l-3,1.33a2.71,2.71,0,0,0-4.36,0l-3-1.34a2,2,0,0,0-.72-.16,1.84,1.84,0,0,0-1.39.53,1.9,1.9,0,0,0-.57,1.37v3.87a1.89,1.89,0,0,0,1.9,1.9,2,2,0,0,0,.78-.16l2.77-1.25a2.73,2.73,0,0,0,4.74,0l2.77,1.25a2,2,0,0,0,.78.16,1.89,1.89,0,0,0,1.9-1.9V38.56a1.88,1.88,0,0,0-2-1.9ZM26.17,42.28l0-3.58,3.11,1.39v.81Zm5.83,0a.75.75,0,0,1-.75-.76V39.82a.75.75,0,1,1,1.5,0v1.72A.75.75,0,0,1,32,42.3Zm5.82,0L34.75,40.9v-.81l3.07-1.38Z"/>
<path d="M50.57,31.8l-2.79.75L42.33,34a11.9,11.9,0,0,0-8.55-17.77A2.66,2.66,0,0,0,30,13.67L27.26,8.28a2.08,2.08,0,0,0-3-1l-6.53,3.77a2,2,0,0,0-1,1.29,2.19,2.19,0,0,0,.31,1.7l3.35,5.14a2.68,2.68,0,0,0-.77,3.51,2.58,2.58,0,0,0,1.17,1,12.16,12.16,0,0,0-.82,4.34,11.93,11.93,0,0,0,1.61,6L13.43,31.8a5.11,5.11,0,0,0-2.64,9.87l2.78.74h0l7.44,2v8.87A3.73,3.73,0,0,0,24.74,57H39.26A3.73,3.73,0,0,0,43,53.28V44.41l10.22-2.74a5.11,5.11,0,0,0-2.64-9.87ZM31.28,15.44a.66.66,0,0,1,.41.32.67.67,0,0,1-.25.93l-9.08,5.25a.7.7,0,0,1-.51.07.68.68,0,0,1-.42-.32.69.69,0,0,1,.25-.94l9.08-5.24A.73.73,0,0,1,31.28,15.44Zm-12.5-2.66L25.37,9l2.88,5.65-6.06,3.5L18.8,13A.15.15,0,0,1,18.78,12.78ZM9.11,35.93a3.11,3.11,0,0,1,3.8-2.2l1.82.49-1.6,6-1.83-.49A3.1,3.1,0,0,1,9.11,35.93Zm32.62,6.74a1,1,0,0,0-.74,1v9.64A1.73,1.73,0,0,1,39.26,55H24.74A1.73,1.73,0,0,1,23,53.28V43.64a1,1,0,0,0-.74-1l-7.21-1.93,1.6-6,7.31,2a1,1,0,0,0,1.13-.47,1,1,0,0,0-.16-1.2,9.93,9.93,0,0,1-2.89-7,9.74,9.74,0,0,1,1-4.23,3.68,3.68,0,0,0,.35-.15l9.08-5.24a2.07,2.07,0,0,0,.31-.27A9.89,9.89,0,0,1,39,35a1,1,0,0,0-.16,1.21A1,1,0,0,0,40,36.7l7.33-2,1.61,6Zm11-2.94-1.83.49-1.6-6,1.82-.49a3.11,3.11,0,0,1,1.61,6Z"/>
<path d="M32,50.9a1.26,1.26,0,0,0,0,2.51h0a1.25,1.25,0,0,0,1.25-1.26h0A1.25,1.25,0,0,0,32,50.9Z"/>
</g>
</svg>