<?xml version="1.0" ?>
<!-- Uploaded to: SVG Repo, www.svgrepo.com, Generator: SVG Repo Mixer Tools -->
<svg width="800px" height="800px" viewBox="0 0 64 64" xmlns="http://www.w3.org/2000/svg">
<defs>
<style>.cls-1{fill:#665e66;}.cls-2{fill:#e7aa90;}.cls-3{fill:#e29375;}.cls-4{fill:#eaafa5;}.cls-5{fill:#f1cbc6;}.cls-6{fill:#544f57;}.cls-7{fill:#756e78;}</style>
</defs>
<g data-name="Winter Avatar" id="Winter_Avatar-37">
<path class="cls-1" d="M19.81,49.71c.38-1.4-.24-8.48-.24-8.48l15-6.28,9.9,6.28s-.62,7.08-.24,8.48Z" id="path44473-9-1-0"/>
<path class="cls-2" d="M43,23.47l1.85-1.82,4,1.07a1.5,1.5,0,1,0,.78-2.9l-2.28-.61,2-2,3.53-.39A1.53,1.53,0,0,0,54,16.15l1.72-2.67a1.53,1.53,0,0,0,.18-1.3L55,9.09A1.56,1.56,0,0,0,53.42,8a1.76,1.76,0,0,0-.4.07A1.56,1.56,0,0,0,52,10l.75,2.39-.93,1.43-2.34.26-1.62-2.71.21-.93a1.56,1.56,0,1,0-3-.71l-.36,1.55a1.57,1.57,0,0,0,.18,1.16l1.83,3L41,21.14C40.67,22.22,41.47,23,43,23.47Z" id="path163593-2"/>
<path class="cls-2" d="M21,23.47l-1.85-1.82-4,1.07a1.5,1.5,0,1,1-.78-2.9l2.28-.61-2-2-3.53-.39A1.53,1.53,0,0,1,10,16.15L8.25,13.48a1.53,1.53,0,0,1-.18-1.3L9,9.09A1.56,1.56,0,0,1,10.58,8a1.67,1.67,0,0,1,.4.07A1.56,1.56,0,0,1,12,10l-.75,2.39.93,1.43,2.34.26,1.62-2.71-.21-.93a1.56,1.56,0,0,1,3-.71l.36,1.55a1.57,1.57,0,0,1-.18,1.16l-1.83,3L23,21.14A2.85,2.85,0,0,1,21,23.47Z" id="path171675-6"/>
<path class="cls-3" d="M18.52,32.86V31.21a13.48,13.48,0,1,1,27,0v1.65l-12.59,5Z" id="path51134-3-2-5-3"/>
<path class="cls-2" d="M22,41.23H18.85a2,2,0,0,1-1.94-1.95l-.5-3.91A2.45,2.45,0,0,1,19,32.82H45a2.45,2.45,0,0,1,2.55,2.55l-.5,3.91a2,2,0,0,1-1.94,1.95H22Z" id="rect49272-0-9-1-6"/>
<path class="cls-2" d="M41.55,49c0-2.54-2.89-3.61-2.89-3.61H25.34S22.45,46.41,22.45,49l-.06,3.64,2.16,1.57,8,1L40.05,54Z" id="path37315-2-9-3-3"/>
<path class="cls-3" d="M37.85,52.09A3.7,3.7,0,0,0,38.69,49h2.86a4.9,4.9,0,0,1,4.91,4.91v.85A1.3,1.3,0,0,1,45.16,56H18.84a1.3,1.3,0,0,1-1.3-1.29v-.85A4.9,4.9,0,0,1,22.45,49h2.86a3.7,3.7,0,0,0,.84,3.14S27,53.25,32,53.25,37.85,52.09,37.85,52.09Z" id="path37815-7-81-6-67"/>
<path class="cls-4" d="M35.71,47l-.56,2.5A3.34,3.34,0,0,1,32,52.62a3.33,3.33,0,0,1-3.15-3.15L28.29,47l3.9-3Z" id="path44459-0-2-5"/>
<path class="cls-5" d="M21.07,34.52,21,35.6a11.06,11.06,0,1,0,22,0l-.16-1.93-6.51-8.79L23.53,29.14Z" id="path99362-0-53"/>
<path class="cls-4" d="M38.77,28.15a10.67,10.67,0,0,1,.47,2.34l.26,3.18.16,1.93a11.07,11.07,0,0,1-9.34,11.84,11.66,11.66,0,0,0,1.68.12,11.06,11.06,0,0,0,11-12l-.16-1.93Z" id="path101009-9-56"/>
<path class="cls-1" d="M33,29.73s4.61,5.5,9.91,3.94l-.26-3.18a10.5,10.5,0,0,0-4.31-7.64l-5.16,1Z" id="path113433-6-2"/>
<path class="cls-6" d="M32,20.82a11.66,11.66,0,0,0-1.68.13,10.61,10.61,0,0,1,4.61,1.9,10.5,10.5,0,0,1,4.31,7.64l.26,3.18v.14a7,7,0,0,0,3.35-.14l-.26-3.18A10.56,10.56,0,0,0,32,20.82Z" id="path101011-3-9"/>
<path class="cls-7" d="M32,20.82a10.56,10.56,0,0,0-10.6,9.67l-.33,4A20.69,20.69,0,0,0,38.29,22.85,10.66,10.66,0,0,0,32,20.82Z" id="path22989-64-8-1"/>
<path class="cls-1" d="M32,20.82a11.66,11.66,0,0,0-1.68.13,10.61,10.61,0,0,1,4.61,1.9A10.78,10.78,0,0,1,37.12,25a15,15,0,0,0,1.17-2.13A10.66,10.66,0,0,0,32,20.82Z" id="path186167-27"/>
<path d="M28.83,36.83v-.59a1,1,0,1,0-2,0v.59a1,1,0,0,0,2,0Z"/>
<path d="M36.17,35.24a1,1,0,0,0-1,1v.59a1,1,0,0,0,2,0v-.59A1,1,0,0,0,36.17,35.24Z"/>
<path d="M34.56,41.35A4.82,4.82,0,0,1,32,42a5,5,0,0,1-2.57-.68A1,1,0,0,0,28.28,43a7.17,7.17,0,0,0,7.44,0,1,1,0,1,0-1.16-1.64Z"/>
<path d="M55.92,8.79A2.57,2.57,0,0,0,53.38,7a2.41,2.41,0,0,0-.66.12A2.55,2.55,0,0,0,51,10.32l.6,1.94-.41.64L50,13l-1.09-1.82.13-.54a2.56,2.56,0,0,0-5-1.15l-.36,1.54A2.58,2.58,0,0,0,44,13l1.43,2.38-4.53,4.46a14.38,14.38,0,0,0-17.79,0l-4.52-4.46L20,13a2.58,2.58,0,0,0,.3-1.9L20,9.53a2.56,2.56,0,1,0-5,1.15l.13.54L14,13l-1.23-.14-.41-.64.6-1.94a2.55,2.55,0,0,0-1.68-3.2A2.41,2.41,0,0,0,10.63,7,2.58,2.58,0,0,0,8.08,8.8l-1,3.08A2.53,2.53,0,0,0,7.41,14l1.71,2.67A2.56,2.56,0,0,0,11,17.85l3.19.35.49.49-.59.16a2.5,2.5,0,0,0-1.76,3.07,2.45,2.45,0,0,0,1.16,1.51,2.48,2.48,0,0,0,1.9.25l3.43-.92.87.86a14.37,14.37,0,0,0-2.17,7.59v.92a3.68,3.68,0,0,0-1.33.93,3.07,3.07,0,0,0-.77,2.44l.5,3.91a3,3,0,0,0,2.73,2.8,56.26,56.26,0,0,1,.23,7,5.9,5.9,0,0,0-2.34,4.68v.85A2.3,2.3,0,0,0,18.84,57H45.16a2.3,2.3,0,0,0,2.3-2.29v-.85a5.9,5.9,0,0,0-2.34-4.68,56.26,56.26,0,0,1,.23-7,3,3,0,0,0,2.73-2.8l.5-3.91a3.08,3.08,0,0,0-.78-2.44,3.61,3.61,0,0,0-1.32-.93v-.92a14.37,14.37,0,0,0-2.17-7.59l.87-.86,3.43.92a2.5,2.5,0,0,0,1.3-4.83l-.59-.16.49-.49L53,17.85a2.56,2.56,0,0,0,1.88-1.16L56.59,14a2.53,2.53,0,0,0,.29-2.14ZM19.81,20.94a1,1,0,0,0-1-.26l-4,1.07a.49.49,0,0,1-.38-.05.5.5,0,0,1-.23-.3.52.52,0,0,1,.35-.62l2.28-.61a1,1,0,0,0,.44-1.67l-2-2a1,1,0,0,0-.59-.29l-3.54-.39a.56.56,0,0,1-.4-.25L9.09,12.94A.6.6,0,0,1,9,12.47l1-3.08A.56.56,0,0,1,10.54,9l.15,0a.55.55,0,0,1,.36.69l-.74,2.39a1,1,0,0,0,.11.84l.92,1.43a1,1,0,0,0,.74.46l2.34.26a1,1,0,0,0,1-.48L17,11.9a1,1,0,0,0,.12-.74l-.22-.93A.56.56,0,1,1,18,10l.36,1.55a.54.54,0,0,1-.07.41L16.46,15a1,1,0,0,0,.15,1.23l5,4.92c-.26.27-.51.54-.75.83ZM17.9,39.16l-.49-3.92a1.06,1.06,0,0,1,.29-.85A1.71,1.71,0,0,1,19,33.82h1.16L20,35.52a12.28,12.28,0,0,0,.56,4.71H18.85C18.25,40.23,18,39.65,17.9,39.16ZM32,46.57A10.06,10.06,0,0,1,22,35.68l0-.27A21.5,21.5,0,0,0,32.87,31.1c1.3,1.3,4.34,3.86,8,3.86A7.65,7.65,0,0,0,42,34.88l.06.8A10.06,10.06,0,0,1,32,46.57Zm2.38,1.75-.22,1A2.4,2.4,0,0,1,32,51.62c-1.34,0-2-1.24-2.18-2.37l-.2-.93a11.45,11.45,0,0,0,4.76,0Zm7.41-15.44c-3.21.48-6.12-1.86-7.39-3.09a22.46,22.46,0,0,0,4.23-5.37,9.48,9.48,0,0,1,3,6.16Zm-19.62.49.23-2.79A9.53,9.53,0,0,1,32,21.82a9.75,9.75,0,0,1,5,1.38A19.56,19.56,0,0,1,22.17,33.37Zm-1.52,8.86h.76a12.16,12.16,0,0,0,1.72,2.45c.16.17.33.32.49.48A4.84,4.84,0,0,0,21.57,48c-.22,0-.43.08-.64.13C21,46.34,20.77,43.76,20.65,42.23ZM45.46,54.71a.29.29,0,0,1-.3.29H18.84a.29.29,0,0,1-.3-.29v-.85A3.92,3.92,0,0,1,22.45,50h1.8a4.32,4.32,0,0,0,1.2,2.85,1,1,0,0,0,1.41,0,1,1,0,0,0,0-1.42,2.69,2.69,0,0,1-.57-2.21,1,1,0,0,0-.2-.85,1,1,0,0,0-.78-.37H23.72a3.69,3.69,0,0,1,1.53-1.46,12.55,12.55,0,0,0,2.17,1.16l.44,2c.37,2.39,2,4,4.14,4a4.29,4.29,0,0,0,4.13-3.93l.45-2a12.6,12.6,0,0,0,2.17-1.17A3.8,3.8,0,0,1,40.29,48h-1.6a1,1,0,0,0-.78.37,1,1,0,0,0-.2.85,2.65,2.65,0,0,1-.57,2.21,1,1,0,0,0,0,1.42,1,1,0,0,0,1.41,0A4.32,4.32,0,0,0,39.75,50h1.8a3.92,3.92,0,0,1,3.91,3.91Zm-3-6.67a4.84,4.84,0,0,0-2-2.88c.16-.16.33-.31.49-.48a12.16,12.16,0,0,0,1.72-2.45h.76c-.12,1.53-.3,4.11-.28,5.94C42.86,48.12,42.65,48.07,42.43,48Zm3.67-8.88c-.06.49-.35,1.07-1,1.07H43.46A12.28,12.28,0,0,0,44,35.52l-.14-1.7H45a1.71,1.71,0,0,1,1.26.57,1.06,1.06,0,0,1,.29.85Zm-1.62-7.34h-.77l-.12-1.41a11.64,11.64,0,0,0-23.18,0l-.12,1.41h-.77v-.61a12.48,12.48,0,1,1,25,0ZM54.91,12.94l-1.72,2.67a.56.56,0,0,1-.4.25l-3.54.39a1,1,0,0,0-.59.29l-2,2a1,1,0,0,0,.44,1.67l2.28.61a.52.52,0,0,1,.35.62.5.5,0,0,1-.61.35l-4-1.07a1.1,1.1,0,0,0-1,.28l-1,1c-.24-.29-.49-.56-.75-.83l5-4.92A1,1,0,0,0,47.54,15l-1.83-3.05a.54.54,0,0,1-.07-.41L46,10a.56.56,0,1,1,1.09.25l-.22.93a1,1,0,0,0,.12.74l1.62,2.72a1,1,0,0,0,1,.48l2.34-.26a1,1,0,0,0,.74-.46L53.58,13a1,1,0,0,0,.11-.84L53,9.72A.55.55,0,0,1,53.31,9a.4.4,0,0,1,.15,0,.6.6,0,0,1,.55.39l1,3.08A.6.6,0,0,1,54.91,12.94Z"/>
</g>
</svg>