<?xml version="1.0" encoding="UTF-8"?>
<svg xmlns="http://www.w3.org/2000/svg" viewBox="0 0 255.12 255.12">
  <defs>
    <style>
      .cls-1 { fill: #0528f2; }
      .cls-2 { fill: #f0f0f0; }
      .cls-3 { fill: #adeb00; }
    </style>
  </defs>
  <rect class="cls-1" width="255.12" height="255.12" rx="70.87" ry="70.87"/>
  <g>
    <path class="cls-2" d="M119.22,205.51s-18.76-41.05-66.32-33.2v-36.93s45.68,2.49,62.23,48.36c1.86,6.56,3.26,13.8,4.09,21.76Z"/>
    <path class="cls-3" d="M119.22,205.51c-10.37-49.38-44.19-65.06-66.32-69.99-5.42-1.22-10.15-1.78-13.65-2.04-3.64-.27-6.46-3.29-6.46-6.94,0-4.19,3.66-7.43,7.81-6.91,17.62,2.22,60.02,12.88,74.52,64.12,1.86,6.56,3.26,13.8,4.09,21.76Z"/>
    <path class="cls-2" d="M135.9,205.51s18.76-42.92,66.32-35.06v-35.06s-45.68,2.49-62.23,48.36c-1.86,6.56-3.26,13.8-4.09,21.76Z"/>
    <path class="cls-3" d="M135.9,205.51c10.37-49.38,44.19-65.06,66.32-69.99,5.42-1.22,10.15-1.78,13.65-2.04,3.64-.27,6.46-3.29,6.46-6.94,0-4.19-3.66-7.43-7.81-6.91-17.62,2.22-60.02,12.88-74.52,64.12-1.86,6.56-3.26,13.8-4.09,21.76Z"/>
    <path class="cls-2" d="M170.85,61.46c-13.35-7.9-28.32-11.85-43.29-11.85-14.97,0-29.94,3.95-43.29,11.85l-52.33,30.96c-4.56,2.7-3.17,9.65,2.08,10.37,18.43,2.53,48.4,10.24,75.41,33.4,2.62,2.24,5.53,3.95,8.6,5.12,6.13,2.33,12.94,2.33,19.07,0,3.07-1.17,5.98-2.87,8.6-5.12,27.01-23.16,56.98-30.87,75.41-33.4,5.25-.72,6.64-7.67,2.08-10.37l-52.33-30.96ZM127.56,124.08c-9.47,0-17.14-7.68-17.14-17.14s7.68-17.14,17.14-17.14,17.14,7.68,17.14,17.14-7.68,17.14-17.14,17.14Z"/>
  </g>
</svg>