<?xml version="1.0" encoding="UTF-8"?>
<svg id="Camada_2" data-name="Camada 2" xmlns="http://www.w3.org/2000/svg" viewBox="0 0 64 64">
  <defs>
    <style>
      .cls-1 {
        fill: #0528f2;
      }

      .cls-2 {
        fill: #ffffff;
      }

      .cls-3 {
        fill: #1ad937;
      }
    </style>
  </defs>
  <g id="Camada_1-2" data-name="Camada 1">
    <!-- Blue background circle -->
    <circle cx="32" cy="32" r="32" fill="#0528f2"/>
    
    <!-- Simplified Editaliza icon for small sizes -->
    <g transform="translate(16, 16) scale(0.25)">
      <g>
        <path class="cls-2" d="M59.61,102.75s-9.38-20.52-33.16-16.6v-18.47s22.84,1.24,31.11,24.18c.93,3.28,1.63,6.9,2.05,10.89Z"/>
        <path class="cls-3" d="M59.61,102.75c-5.18-24.68-22.08-32.53-33.16-34.99-2.71-.61-5.08-.89-6.83-.97-1.82-.14-3.23-1.64-3.23-3.47,0-2.09,1.83-3.71,3.9-3.45,8.8,1.11,30.01,6.44,37.26,32.06,.93,3.28,1.63,6.9,2.05,10.89Z"/>
        <path class="cls-2" d="M67.98,102.75s9.38-21.46,33.16-17.53v-17.53s-22.84,1.24-31.11,24.18c-.93,3.28-1.63,6.9-2.05,10.89Z"/>
        <path class="cls-3" d="M67.98,102.75c5.18-24.68,22.08-32.53,33.16-34.99,2.71-.61,5.08-.89,6.83-.97,1.82-.14,3.23-1.64,3.23-3.47,0-2.09-1.83-3.71-3.9-3.45-8.8,1.11-30.01,6.44-37.26,32.06-.93,3.28-1.63,6.9-2.05,10.89Z"/>
        <path class="cls-2" d="M85.42,30.73c-6.67-3.95-14.16-5.93-21.64-5.93s-14.97,1.97-21.64,5.93L15.89,46.22c-2.28,1.35-1.59,4.82,1.04,5.18,9.21,1.27,24.2,5.12,37.7,16.7,.85,.73,1.39,.95,2.8,1.56,3.07,1.17,6.47,1.17,9.54,0,1.53-.58,2.99-1.44,4.3-2.56,13.5-11.58,28.5-15.43,37.7-16.7,2.63-.36,3.32-3.83,1.04-5.18l-26.16-15.49ZM63.78,62.04c-4.73,0-8.57-3.84-8.57-8.57s3.84-8.57,8.57-8.57,8.57,3.84,8.57,8.57-3.84,8.57-8.57,8.57Z"/>
      </g>
    </g>
  </g>
</svg>