<svg xmlns="http://www.w3.org/2000/svg" viewBox="0 0 16 16" fill="none" shape-rendering="crispEdges"><metadata xmlns:rdf="http://www.w3.org/1999/02/22-rdf-syntax-ns#" xmlns:xsi="http://www.w3.org/2001/XMLSchema-instance" xmlns:dc="http://purl.org/dc/elements/1.1/" xmlns:dcterms="http://purl.org/dc/terms/"><rdf:RDF><rdf:Description><dc:title>Pixel Art</dc:title><dc:creator>DiceBear</dc:creator><dc:source xsi:type="dcterms:URI">https://www.figma.com/community/file/1198754108850888330</dc:source><dcterms:license xsi:type="dcterms:URI">https://creativecommons.org/publicdomain/zero/1.0/</dcterms:license><dc:rights>„Pixel Art” (https://www.figma.com/community/file/1198754108850888330) by „DiceBear”, licensed under „CC0 1.0” (https://creativecommons.org/publicdomain/zero/1.0/)</dc:rights></rdf:Description></rdf:RDF></metadata><mask id="viewboxMask"><rect width="16" height="16" rx="0" ry="0" x="0" y="0" fill="#fff" /></mask><g mask="url(#viewboxMask)"><path d="M4 2h8v1h1v3h1v2h-1v3h-1v1H9v1h4v1h1v2H2v-2h1v-1h4v-1H4v-1H3V8H2V6h1V3h1V2Z" fill="#cb9e6e"/><path d="M4 2h8v1h1v3h1v2h-1v3h-1v1H4v-1H3V8H2V6h1V3h1V2Z" fill="#fff" fill-opacity=".1"/><path d="M5 13H3v1H2v2h12v-2h-1v-1h-2v1H5v-1Z" fill="#ffeead"/><path fill="#fff" fill-opacity=".3" d="M2 14h1v2H2zM6 14h1v2H6zM8 14h1v2H8zM10 14h1v2h-1zM4 13h1v3H4zM12 13h1v3h-1z"/><path fill="#fff" d="M4 5h3v2H4z"/><path fill="#876658" d="M5 6h1v1H5z"/><path fill="#fff" d="M9 5h3v2H9z"/><path fill="#876658" d="M10 6h1v1h-1z"/><mask id="beardVariant04-a" style="mask-type:luminance" maskUnits="userSpaceOnUse" x="6" y="11" width="4" height="1"><path opacity=".9" fill="#91cb15" d="M6 11h4v1H6z"/></mask><g mask="url(#beardVariant04-a)"><path fill="#91cb15" d="M0 0h16v16H0z"/><path fill="#fff" fill-opacity=".3" d="M0 0h16v16H0z"/></g><path d="M7 9v1h1v1H6V9h1Z" fill="#de0f0d"/><path d="M4 0H1v3h2v1H2v2h1V5h2V4h1V3h5v1h1v1h1v1h1V3h-1V2h-1V1H6v1H4V0ZM2 8h1v1H2V8ZM14 8h-1v1h1V8Z" fill="#91cb15"/><path d="M12 1H4v1H3v2h12V3h-2V2h-1V1Z" fill="#614f8a"/><path fill="#fff" fill-opacity=".3" d="M11 4h-1V1h1z"/></g></svg>